<?xml version="1.0" encoding="iso-8859-1"?>
<!-- Generator: Adobe Illustrator 19.0.0, SVG Export Plug-In . SVG Version: 6.00 Build 0)  -->
<svg version="1.1" id="Capa_1" xmlns="http://www.w3.org/2000/svg" xmlns:xlink="http://www.w3.org/1999/xlink" x="0px" y="0px"
	 viewBox="0 0 512 512" style="enable-background:new 0 0 512 512;" xml:space="preserve">
<path style="fill:#FFDD95;" d="M256.174,25.079c0,0,41.468-41.468,91.226,8.294c0,0,33.174-8.294,49.757,33.174
	c0,0,74.638,0,66.345,116.106c0,0,49.757,74.638-24.881,124.4c0,0,16.587,66.345-41.468,91.226c0,0,16.587,49.757-33.175,58.051
	c0,0-58.051,99.519-107.813,8.294h-0.337c-49.757,91.226-107.813-8.294-107.813-8.294c-49.757-8.294-33.174-58.051-33.174-58.051
	c-58.051-24.881-41.468-91.226-41.468-91.226c-74.625-49.766-24.868-124.404-24.868-124.404
	C40.211,66.543,114.85,66.543,114.85,66.543c16.587-41.468,49.757-33.175,49.757-33.175c49.757-49.757,91.226-8.294,91.226-8.294
	h0.341L256.174,25.079L256.174,25.079z"/>
<path d="M303.473,512c-0.208,0-0.417,0-0.628-0.004c-17.39-0.248-33.108-10.53-46.849-30.608
	c-13.739,20.077-29.455,30.36-46.847,30.608c-32.965,0.481-59.028-35.977-66.621-47.686c-14.94-3.297-25.84-10.508-32.443-21.472
	c-8.392-13.936-7.257-30.248-5.54-39.647c-41.276-21.88-45.425-66.363-41.049-92.204c-66.092-48.314-32.299-116.141-24.034-130.519
	c-2.717-44.39,6.076-77.815,26.15-99.375c15.645-16.802,33.915-21.553,43.194-22.894c14.149-29.916,38.154-35.716,52.829-34.3
	c42.448-39.601,79.986-20.357,94.305-10.104c5.341-3.894,13.982-9.077,25.032-11.839c16.68-4.162,42.013-3.554,69.392,21.947
	c14.621-1.402,38.685,4.381,52.829,34.3c9.283,1.341,27.552,6.093,43.196,22.894c20.072,21.562,28.865,54.988,26.148,99.375
	c8.269,14.378,42.057,82.206-24.042,130.516c4.377,25.84,0.226,70.324-41.052,92.204c1.716,9.399,2.851,25.706-5.538,39.643
	c-6.6,10.968-17.503,18.179-32.445,21.477C361.919,475.946,335.923,512,303.473,512z M255.827,455.751
	c3.246,0,6.574,1.772,8.13,4.623c12.151,22.278,25.32,33.675,39.144,33.875c23.215,0.112,46.268-30.49,53.211-42.391
	c1.33-2.279,3.606-3.848,6.206-4.282c11.631-1.937,19.752-6.591,24.142-13.829c8.177-13.482,2.123-32.501,2.063-32.691
	c-1.422-4.364,0.711-9.127,4.932-10.934c50.528-21.659,36.96-78.505,36.357-80.915c-0.91-3.64,0.568-7.458,3.688-9.538
	c66.203-44.141,24.224-109.356,22.409-112.109c-1.079-1.631-1.599-3.591-1.46-5.54c2.891-40.462-4.169-70.255-20.987-88.549
	c-16.169-17.589-35.734-18.041-36.561-18.051c-3.589-0.046-6.851-2.25-8.186-5.58c-13.122-32.828-36.796-28.45-39.448-27.84
	c-2.977,0.683-6.184-0.197-8.342-2.355c-41.93-41.928-75.069-11.837-78.704-8.264c-1.686,1.653-3.898,2.524-6.357,2.57l-0.342-0.004
	c-2.314-0.031-4.526-0.962-6.162-2.601c-3.614-3.541-36.739-33.635-78.676,8.295c-2.206,2.206-5.408,3.084-8.429,2.336
	c-2.57-0.588-26.233-4.959-39.364,27.86c-1.348,3.369-4.611,5.58-8.24,5.58c-0.769,0.011-20.337,0.461-36.506,18.051
	c-16.816,18.294-23.878,48.087-20.987,88.549c0.138,1.963-0.377,3.918-1.469,5.556c-1.809,2.739-43.787,67.953,22.409,112.098
	c3.12,2.08,4.594,5.898,3.686,9.538c-0.588,2.392-13.908,59.368,36.355,80.915c4.243,1.816,6.381,6.583,4.923,10.964
	c-0.055,0.16-6.104,19.18,2.076,32.661c4.39,7.237,12.51,11.891,24.137,13.829c2.598,0.433,4.873,2.002,6.203,4.273
	c6.94,11.843,29.89,42.399,52.849,42.399c0.132,0,0.262,0,0.395,0c13.813-0.213,26.973-11.61,39.116-33.875
	C249.591,457.524,252.579,455.751,255.827,455.751z"/>
<path style="fill:#FFDD95;" d="M164.61,124.6c0,0,0-41.468-49.757-58.051"/>
<path d="M164.609,133.474c-4.884,0-8.846-3.946-8.875-8.822c-0.024-1.554-1.053-35.476-43.688-49.683
	c-4.649-1.549-7.163-6.576-5.615-11.226c1.554-4.649,6.583-7.152,11.226-5.614c55.191,18.393,55.827,64.517,55.827,66.471
	C173.484,129.501,169.511,133.474,164.609,133.474z"/>
<path style="fill:#FFDD95;" d="M156.317,282.17c0,0-25.382,68.737-82.932,24.881"/>
<path d="M109.528,330.575c-13.234,0-27.145-5.508-41.524-16.463c-3.898-2.972-4.649-8.541-1.679-12.437
	c2.968-3.9,8.539-4.658,12.439-1.681c14.483,11.037,27.568,14.968,38.91,11.669c19.932-5.798,30.217-32.302,30.317-32.566
	c1.699-4.607,6.812-6.956,11.399-5.253c4.598,1.699,6.949,6.8,5.25,11.397c-0.527,1.43-13.256,35.106-42.011,43.465
	C118.345,329.95,113.975,330.575,109.528,330.575z"/>
<path style="fill:#FFDD95;" d="M172.904,431.446c0,0-8.294-33.174,24.881-66.345"/>
<path d="M172.897,440.32c-3.976,0-7.595-2.691-8.604-6.721c-0.388-1.556-9.096-38.468,27.217-74.77
	c3.469-3.466,9.087-3.466,12.552,0c3.464,3.466,3.464,9.087-0.002,12.549c-29.282,29.277-22.616,57.631-22.545,57.913
	c1.187,4.759-1.703,9.573-6.457,10.764C174.333,440.237,173.61,440.32,172.897,440.32z"/>
<path style="fill:#FFDD95;" d="M81.678,190.944c0,0,33.175,41.468,74.638,24.881s49.757-41.468,66.345-33.174"/>
<path d="M136.172,228.694c-35.175,0-60.169-30.636-61.425-32.206c-3.064-3.828-2.441-9.412,1.385-12.474
	c3.822-3.064,9.404-2.444,12.466,1.374c1.251,1.545,29.726,36.08,64.423,22.196c18.041-7.217,29.234-15.982,38.227-23.026
	c11.037-8.641,21.461-16.805,35.38-9.843c4.383,2.191,6.16,7.523,3.967,11.906c-2.191,4.383-7.523,6.166-11.906,3.967
	c-3.334-1.662-5.646-0.553-16.498,7.946c-9.362,7.33-22.185,17.373-42.58,25.531C151.434,227.335,143.576,228.694,136.172,228.694z"
	/>
<path style="fill:#FFDD95;" d="M347.061,124.6c0,0,0-41.468,49.757-58.051"/>
<path d="M347.06,133.445c-0.022,0-0.039-0.002-0.061-0.002c-4.88-0.033-8.814-3.965-8.814-8.842c0-1.954,0.632-48.078,55.832-66.471
	c4.641-1.549,9.676,0.966,11.224,5.615c1.552,4.649-0.962,9.676-5.617,11.226c-42.711,14.233-43.669,48.249-43.69,49.692
	C355.865,129.516,351.909,133.445,347.06,133.445z"/>
<path style="fill:#FFDD95;" d="M355.356,282.17c0,0,25.382,68.737,82.932,24.881"/>
<path d="M402.148,330.575c-4.45,0-8.818-0.624-13.105-1.868c-28.757-8.359-41.484-42.035-42.013-43.46
	c-1.699-4.603,0.65-9.702,5.248-11.401c4.581-1.708,9.685,0.646,11.397,5.231c0.13,0.347,10.279,26.811,30.391,32.605
	c11.315,3.264,24.385-0.672,38.846-11.687c3.896-2.968,9.469-2.215,12.437,1.681c2.968,3.896,2.219,9.465-1.681,12.437
	C429.292,325.066,415.377,330.575,402.148,330.575z"/>
<path style="fill:#FFDD95;" d="M313.887,381.689c0,0,8.294-33.175-24.881-66.345"/>
<path d="M313.896,390.563c-0.715,0-1.438-0.083-2.162-0.264c-4.737-1.183-7.623-5.967-6.469-10.703
	c0.303-1.313,6.293-29.155-22.534-57.978c-3.466-3.462-3.466-9.083,0-12.549c3.466-3.466,9.083-3.466,12.549,0
	c36.315,36.306,27.605,73.219,27.219,74.775C321.488,387.871,317.869,390.563,313.896,390.563z"/>
<path style="fill:#FFDD95;" d="M424.643,228.911c0,0-49.882,18.221-76.711-17.484c-26.829-35.704-21.002-61.273-39.485-62.795"/>
<path d="M395.664,242.509c-17.789,0-39.366-5.174-54.827-25.75c-13.195-17.561-18.946-32.803-23.141-43.928
	c-4.862-12.894-6.262-15.048-9.976-15.354c-4.884-0.401-8.519-4.687-8.117-9.573c0.399-4.884,4.65-8.535,9.573-8.117
	c15.51,1.276,20.181,13.664,25.129,26.779c4.03,10.69,9.048,23.994,20.719,39.528c22.612,30.09,66.133,14.641,66.571,14.481
	c4.616-1.69,9.698,0.687,11.384,5.291c1.681,4.605-0.689,9.698-5.292,11.379C426.562,237.658,412.89,242.509,395.664,242.509z"/>
<path d="M255.836,473.497c-4.901,0-8.875-3.973-8.875-8.875V25.079c0-4.901,3.973-8.875,8.875-8.875
	c4.901,0,8.875,3.973,8.875,8.875v439.543C264.711,469.523,260.737,473.497,255.836,473.497z"/>
<path style="fill:#FFDD95;" d="M311.85,92.796c0,0,0.856,58.637-29.088,96.609"/>
<path d="M282.76,198.279c-1.925,0-3.861-0.622-5.49-1.907c-3.848-3.034-4.511-8.615-1.473-12.463
	c27.579-34.974,27.188-90.435,27.179-90.992c-0.061-4.897,3.857-8.925,8.754-8.991c0.039,0,0.083,0,0.125,0
	c4.84,0,8.797,3.885,8.87,8.741c0.035,2.522,0.542,62.246-30.993,102.233C287.981,197.12,285.381,198.279,282.76,198.279z"/>
<path style="fill:#FFDD95;" d="M164.61,215.825c0,0-33.174,66.345,16.587,99.519"/>
<path d="M181.189,324.217c-1.692,0-3.402-0.481-4.914-1.491c-44.518-29.675-32.289-85.5-19.604-110.872
	c2.193-4.383,7.527-6.158,11.908-3.969c4.383,2.193,6.16,7.521,3.969,11.904c-1.267,2.559-28.946,59.824,13.572,88.169
	c4.078,2.717,5.181,8.229,2.461,12.307C186.873,322.831,184.058,324.217,181.189,324.217z"/>
<path style="fill:#FFDD95;" d="M214.368,290.463c0,0,24.881-16.587,8.294-41.468"/>
<path d="M214.377,299.339c-2.869,0-5.683-1.387-7.393-3.952c-2.711-4.065-1.625-9.551,2.419-12.277
	c2.917-2.006,16.816-12.78,5.874-29.192c-2.719-4.078-1.616-9.588,2.461-12.307c4.074-2.728,9.59-1.616,12.307,2.461
	c15.783,23.672,2.217,45.131-10.754,53.777C217.78,298.857,216.068,299.339,214.377,299.339z"/>
<path style="fill:#FFDD95;" d="M289.006,423.153c0,0,16.587-49.757,49.757-49.757"/>
<path d="M289.004,432.025c-0.931,0-1.881-0.147-2.817-0.459c-4.641-1.556-7.15-6.574-5.604-11.219
	c0.758-2.279,19.062-55.829,58.182-55.829c4.901,0,8.875,3.973,8.875,8.875c0,4.901-3.973,8.875-8.875,8.875
	c-21.863,0-37.259,31.548-41.346,43.703C296.172,429.681,292.713,432.025,289.004,432.025z"/>
<path style="fill:#FFDD95;" d="M164.61,33.373c0,0,24.881,33.174,33.174,41.468"/>
<path d="M197.785,83.716c-2.27,0-4.544-0.867-6.275-2.601c-8.639-8.639-32.97-41.043-34.001-42.416
	c-2.94-3.922-2.145-9.484,1.774-12.426c3.924-2.936,9.487-2.145,12.426,1.774c6.816,9.09,25.917,34.083,32.349,40.518
	c3.466,3.464,3.466,9.085,0,12.549C202.328,82.849,200.055,83.716,197.785,83.716z"/>
<path d="M322.173,67.129c-1.842,0-3.696-0.57-5.291-1.756c-3.931-2.926-4.745-8.484-1.82-12.418l21.29-28.614
	c2.926-3.933,8.48-4.75,12.42-1.822c3.931,2.926,4.745,8.484,1.82,12.418l-21.29,28.614
	C327.559,65.894,324.886,67.129,322.173,67.129z"/>
<g>
</g>
<g>
</g>
<g>
</g>
<g>
</g>
<g>
</g>
<g>
</g>
<g>
</g>
<g>
</g>
<g>
</g>
<g>
</g>
<g>
</g>
<g>
</g>
<g>
</g>
<g>
</g>
<g>
</g>
</svg>
