<?xml version="1.0" encoding="iso-8859-1"?>
<!-- Generator: Adobe Illustrator 19.0.0, SVG Export Plug-In . SVG Version: 6.00 Build 0)  -->
<svg version="1.1" id="Capa_1" xmlns="http://www.w3.org/2000/svg" xmlns:xlink="http://www.w3.org/1999/xlink" x="0px" y="0px"
	 viewBox="0 0 511.999 511.999" style="enable-background:new 0 0 511.999 511.999;" xml:space="preserve">
<path style="fill:#83D816;" d="M475.352,433.508H71.531c-11.311,0-20.482,9.17-20.482,20.482v28.807
	c0,11.311,9.17,20.482,20.482,20.482h403.821c11.311,0,20.482-9.17,20.482-20.482V453.99
	C495.834,442.678,486.664,433.508,475.352,433.508z"/>
<path d="M475.351,511.999H71.531c-16.101,0-29.202-13.099-29.202-29.204v-28.804c0-16.105,13.102-29.204,29.202-29.204h403.821
	c16.105,0,29.204,13.099,29.204,29.204v28.804C504.555,498.9,491.457,511.999,475.351,511.999z M71.531,442.229
	c-6.484,0-11.76,5.276-11.76,11.762v28.804c0,6.486,5.276,11.762,11.76,11.762h403.821c6.486,0,11.762-5.276,11.762-11.762v-28.804
	c0-6.486-5.276-11.762-11.762-11.762H71.531z"/>
<path style="fill:#F97DA3;" d="M440.467,363.738H36.646c-11.311,0-20.482,9.17-20.482,20.482v28.807
	c0,11.311,9.17,20.482,20.482,20.482h403.821c11.311,0,20.482-9.17,20.482-20.482V384.22
	C460.948,372.908,451.778,363.738,440.467,363.738z"/>
<path d="M440.466,442.229H36.645c-16.101,0-29.202-13.099-29.202-29.204v-28.804c0-16.105,13.101-29.204,29.202-29.204h403.821
	c16.105,0,29.204,13.099,29.204,29.204v28.804C469.671,429.13,456.571,442.229,440.466,442.229z M36.645,372.459
	c-6.484,0-11.76,5.276-11.76,11.762v28.804c0,6.486,5.276,11.762,11.76,11.762h403.821c6.486,0,11.762-5.276,11.762-11.762v-28.804
	c0-6.486-5.276-11.762-11.762-11.762H36.645z"/>
<path style="fill:#FCAD3A;" d="M475.352,259.082H71.531c-11.311,0-20.482,9.17-20.482,20.482v63.691
	c0,11.311,9.17,20.482,20.482,20.482h403.821c11.311,0,20.482-9.17,20.482-20.482v-63.691
	C495.834,268.252,486.664,259.082,475.352,259.082z"/>
<path d="M475.351,372.459H71.531c-16.101,0-29.202-13.099-29.202-29.204v-63.689c0-16.105,13.102-29.204,29.202-29.204h403.821
	c16.105,0,29.204,13.099,29.204,29.204v63.689C504.555,359.36,491.457,372.459,475.351,372.459z M71.531,267.803
	c-6.484,0-11.76,5.276-11.76,11.762v63.689c0,6.486,5.276,11.762,11.76,11.762h403.821c6.486,0,11.762-5.276,11.762-11.762v-63.689
	c0-6.486-5.276-11.762-11.762-11.762H71.531z"/>
<path style="fill:#26BBEC;" d="M440.467,215.476H71.531c-11.311,0-20.482,9.17-20.482,20.482v2.642
	c0,11.311,9.17,20.482,20.482,20.482h368.936c11.311,0,20.482-9.17,20.482-20.482v-2.642
	C460.948,224.646,451.778,215.476,440.467,215.476z"/>
<path d="M440.466,267.803H71.531c-16.101,0-29.202-13.102-29.202-29.202v-2.645c0-16.101,13.102-29.202,29.202-29.202h368.936
	c16.105,0,29.204,13.102,29.204,29.202v2.645C469.671,254.702,456.571,267.803,440.466,267.803z M71.531,224.197
	c-6.484,0-11.76,5.276-11.76,11.76v2.645c0,6.484,5.276,11.76,11.76,11.76h368.936c6.486,0,11.762-5.276,11.762-11.76v-2.645
	c0-6.484-5.276-11.76-11.762-11.76H71.531z"/>
<path d="M295.245,363.738c-4.816,0-8.721-3.905-8.721-8.721v-87.212c0-4.816,3.905-8.721,8.721-8.721
	c4.816,0,8.721,3.905,8.721,8.721v87.212C303.966,359.832,300.061,363.738,295.245,363.738z"/>
<path d="M295.245,407.343H146.983c-4.816,0-8.721-3.905-8.721-8.721c0-4.816,3.905-8.721,8.721-8.721h148.261
	c4.816,0,8.721,3.905,8.721,8.721C303.965,403.439,300.061,407.343,295.245,407.343z"/>
<path d="M208.032,511.999c-4.816,0-8.721-3.905-8.721-8.721v-61.049c0-4.816,3.905-8.721,8.721-8.721
	c4.816,0,8.721,3.905,8.721,8.721v61.049C216.753,508.094,212.848,511.999,208.032,511.999z"/>
<path d="M251.638,511.999c-4.816,0-8.721-3.905-8.721-8.721v-69.77c0-4.816,3.905-8.721,8.721-8.721
	c4.817,0,8.721,3.905,8.721,8.721v69.77C260.359,508.094,256.455,511.999,251.638,511.999z"/>
<path d="M190.589,259.082c-4.816,0-8.721-3.905-8.721-8.721v-34.886c0-4.816,3.905-8.721,8.721-8.721
	c4.816,0,8.721,3.905,8.721,8.721v34.886C199.311,255.178,195.406,259.082,190.589,259.082z"/>
<polygon style="fill:#EE5281;" points="199.311,337.573 160.065,311.41 120.819,337.573 120.819,259.082 199.311,259.082 "/>
<path d="M199.311,346.294c-1.691,0-3.38-0.49-4.838-1.465l-34.408-22.94l-34.408,22.94c-2.672,1.784-6.113,1.95-8.954,0.434
	c-2.836-1.521-4.605-4.476-4.605-7.69v-78.491c0-4.816,3.905-8.721,8.721-8.721h78.491c4.816,0,8.721,3.905,8.721,8.721v78.491
	c0,3.216-1.769,6.171-4.605,7.69C202.136,345.954,200.723,346.294,199.311,346.294z M160.065,302.689
	c1.687,0,3.373,0.49,4.838,1.465l25.687,17.123v-53.473h-61.049v53.473l25.687-17.123
	C156.692,303.179,158.378,302.689,160.065,302.689z"/>
<path style="fill:#83D816;" d="M277.802,215.476c48.168,0,87.212-56.487,87.212-104.656c0-87.212-87.212-61.049-87.212-61.049
	s-87.212-26.163-87.212,61.049C190.589,158.988,229.635,215.476,277.802,215.476"/>
<path d="M277.802,224.197c-54.029,0-95.934-60.947-95.934-113.377c0-27.982,8.421-48.437,25.029-60.794
	c25.359-18.87,61.115-11.741,70.905-9.286c9.79-2.453,45.54-9.582,70.907,9.286c16.608,12.356,25.026,32.811,25.026,60.794
	C373.736,163.251,331.829,224.197,277.802,224.197z M250.118,54.816c-10.831,0-23.191,2.023-32.863,9.245
	c-11.907,8.891-17.945,24.625-17.945,46.76c0,43.453,35.013,95.934,78.491,95.934s78.491-52.481,78.491-95.934
	c0-22.135-6.038-37.869-17.945-46.76c-21.922-16.374-57.697-6.038-58.055-5.932c-1.627,0.481-3.369,0.485-4.995-0.004
	C275.103,58.067,263.839,54.816,250.118,54.816z"/>
<path style="fill:#83D816;" d="M286.524,6.166c0,0-8.721,8.721-8.721,43.607"/>
<path d="M277.802,58.493c-4.816,0-8.721-3.905-8.721-8.721c0-36.642,9.394-47.891,11.277-49.772l12.332,12.332
	c0,0,0.136-0.106,0.345-0.373c-0.064,0.083-6.512,8.553-6.512,37.813C286.524,54.588,282.618,58.493,277.802,58.493z"/>
<g>
</g>
<g>
</g>
<g>
</g>
<g>
</g>
<g>
</g>
<g>
</g>
<g>
</g>
<g>
</g>
<g>
</g>
<g>
</g>
<g>
</g>
<g>
</g>
<g>
</g>
<g>
</g>
<g>
</g>
</svg>
