<?xml version="1.0" encoding="iso-8859-1"?>
<!-- Generator: Adobe Illustrator 19.0.0, SVG Export Plug-In . SVG Version: 6.00 Build 0)  -->
<svg version="1.1" id="Capa_1" xmlns="http://www.w3.org/2000/svg" xmlns:xlink="http://www.w3.org/1999/xlink" x="0px" y="0px"
	 viewBox="0 0 512 512" style="enable-background:new 0 0 512 512;" xml:space="preserve">
<path style="fill:#EE5281;" d="M256.174,25.079c0,0,41.468-41.468,91.226,8.294c0,0,33.174-8.294,49.757,33.174
	c0,0,74.638,0,66.345,116.106c0,0,49.757,74.638-24.881,124.4c0,0,16.587,66.345-41.468,91.226c0,0,16.587,49.757-33.175,58.051
	c0,0-58.051,99.519-107.813,8.294h-0.337c-49.757,91.226-107.813-8.294-107.813-8.294c-49.757-8.294-33.174-58.051-33.174-58.051
	c-58.051-24.881-41.468-91.226-41.468-91.226c-74.625-49.766-24.868-124.404-24.868-124.404
	C40.211,66.543,114.85,66.543,114.85,66.543c16.587-41.468,49.757-33.175,49.757-33.175c49.757-49.757,91.226-8.294,91.226-8.294
	h0.341L256.174,25.079L256.174,25.079z"/>
<path d="M303.473,512c-0.208,0-0.417,0-0.628-0.004c-17.39-0.248-33.108-10.53-46.849-30.608
	c-13.739,20.077-29.455,30.36-46.847,30.608c-32.965,0.481-59.028-35.977-66.621-47.686c-14.94-3.297-25.84-10.508-32.443-21.472
	c-8.392-13.936-7.257-30.248-5.54-39.647c-41.276-21.88-45.425-66.363-41.049-92.204c-66.092-48.314-32.299-116.141-24.034-130.519
	c-2.717-44.39,6.076-77.815,26.15-99.375c15.645-16.802,33.915-21.553,43.194-22.894c14.149-29.916,38.154-35.716,52.829-34.3
	c42.448-39.601,79.986-20.357,94.305-10.104c5.341-3.894,13.982-9.077,25.032-11.839c16.68-4.162,42.013-3.554,69.392,21.947
	c14.621-1.402,38.685,4.381,52.829,34.3c9.283,1.341,27.552,6.093,43.196,22.894c20.072,21.562,28.865,54.988,26.148,99.375
	c8.269,14.378,42.057,82.206-24.042,130.516c4.377,25.84,0.226,70.324-41.052,92.204c1.716,9.399,2.851,25.706-5.538,39.643
	c-6.6,10.968-17.503,18.179-32.445,21.477C361.919,475.946,335.923,512,303.473,512z M255.827,455.751
	c3.246,0,6.574,1.772,8.13,4.623c12.151,22.278,25.32,33.675,39.144,33.875c23.215,0.112,46.268-30.49,53.211-42.391
	c1.33-2.279,3.606-3.848,6.206-4.282c11.631-1.937,19.752-6.591,24.142-13.829c8.177-13.482,2.123-32.501,2.063-32.691
	c-1.422-4.364,0.711-9.127,4.932-10.934c50.528-21.659,36.96-78.505,36.357-80.915c-0.91-3.64,0.568-7.458,3.688-9.538
	c66.203-44.141,24.224-109.356,22.409-112.109c-1.079-1.631-1.599-3.591-1.46-5.54c2.891-40.462-4.169-70.255-20.987-88.549
	c-16.169-17.589-35.734-18.041-36.561-18.051c-3.589-0.046-6.851-2.25-8.186-5.58c-13.122-32.828-36.796-28.45-39.448-27.84
	c-2.977,0.683-6.184-0.197-8.342-2.355c-41.93-41.928-75.069-11.837-78.704-8.264c-1.686,1.653-3.898,2.524-6.357,2.57l-0.342-0.004
	c-2.314-0.031-4.526-0.962-6.162-2.601c-3.614-3.541-36.739-33.635-78.676,8.295c-2.206,2.206-5.408,3.084-8.429,2.336
	c-2.57-0.588-26.233-4.959-39.364,27.86c-1.348,3.369-4.611,5.58-8.24,5.58c-0.769,0.011-20.337,0.461-36.506,18.051
	c-16.816,18.294-23.878,48.087-20.987,88.549c0.138,1.963-0.377,3.918-1.469,5.556c-1.809,2.739-43.787,67.953,22.409,112.098
	c3.12,2.08,4.594,5.898,3.686,9.538c-0.588,2.392-13.908,59.368,36.355,80.915c4.243,1.816,6.381,6.583,4.923,10.964
	c-0.055,0.16-6.104,19.18,2.076,32.661c4.39,7.237,12.51,11.891,24.137,13.829c2.598,0.433,4.873,2.002,6.203,4.273
	c6.94,11.843,29.89,42.399,52.849,42.399c0.132,0,0.262,0,0.395,0c13.813-0.213,26.973-11.61,39.116-33.875
	C249.591,457.524,252.579,455.751,255.827,455.751z"/>
<polygon style="fill:#FEDA38;" points="337.472,221.882 275.348,221.882 275.348,71.007 175.948,275.132 238.073,275.132 
	238.073,426.006 "/>
<path d="M238.075,434.881c-0.661,0-1.33-0.074-1.995-0.226c-4.028-0.931-6.882-4.515-6.882-8.649V284.007h-53.25
	c-3.06,0-5.902-1.578-7.525-4.169c-1.623-2.596-1.794-5.841-0.455-8.593l99.404-204.122c1.807-3.723,5.942-5.698,9.972-4.763
	c4.03,0.927,6.882,4.513,6.882,8.648v141.999h53.25c3.06,0,5.902,1.576,7.523,4.169c1.625,2.596,1.794,5.841,0.455,8.591
	l-99.399,204.126C244.542,432.992,241.412,434.881,238.075,434.881z M190.14,266.257h47.933c4.901,0,8.875,3.973,8.875,8.875v112.38
	l76.334-156.755H275.35c-4.901,0-8.875-3.973-8.875-8.875V109.504L190.14,266.257z"/>
<g>
</g>
<g>
</g>
<g>
</g>
<g>
</g>
<g>
</g>
<g>
</g>
<g>
</g>
<g>
</g>
<g>
</g>
<g>
</g>
<g>
</g>
<g>
</g>
<g>
</g>
<g>
</g>
<g>
</g>
</svg>
