<?xml version="1.0" encoding="iso-8859-1"?>
<!-- Generator: Adobe Illustrator 19.0.0, SVG Export Plug-In . SVG Version: 6.00 Build 0)  -->
<svg version="1.1" id="Capa_1" xmlns="http://www.w3.org/2000/svg" xmlns:xlink="http://www.w3.org/1999/xlink" x="0px" y="0px"
	 viewBox="0 0 512 512" style="enable-background:new 0 0 512 512;" xml:space="preserve">
<polygon style="fill:#F97DA3;" points="342.564,492.046 205.885,373.59 69.205,492.046 69.205,9.112 342.564,9.112 "/>
<path d="M351.675,512L205.885,385.647L60.093,512V0h291.583V512z M205.885,361.533l127.567,110.558V18.224H78.317v453.868
	L205.885,361.533z"/>
<circle style="fill:#9BFC1D;" cx="342.563" cy="154.908" r="100.231"/>
<path d="M342.564,264.246c-60.291,0-109.344-49.05-109.344-109.344S282.272,45.559,342.564,45.559s109.344,49.05,109.344,109.344
	S402.854,264.246,342.564,264.246z M342.564,63.784c-50.245,0-91.119,40.877-91.119,91.119s40.875,91.119,91.119,91.119
	s91.119-40.877,91.119-91.119S392.809,63.784,342.564,63.784z"/>
<rect x="96.536" y="9.112" width="18.224" height="446.488"/>
<polyline style="fill:#9BFC1D;" points="297.004,164.016 342.564,200.463 379.012,109.344 "/>
<path d="M342.564,209.575c-2.047,0-4.057-0.69-5.691-1.997l-45.56-36.448c-3.933-3.144-4.569-8.877-1.424-12.807
	c3.145-3.931,8.885-4.565,12.805-1.422l35.971,28.775l31.883-79.717c1.868-4.674,7.158-6.959,11.848-5.077
	c4.672,1.868,6.946,7.172,5.077,11.843l-36.448,91.119c-1.073,2.678-3.351,4.692-6.139,5.429
	C344.121,209.477,343.337,209.575,342.564,209.575z"/>
<g>
</g>
<g>
</g>
<g>
</g>
<g>
</g>
<g>
</g>
<g>
</g>
<g>
</g>
<g>
</g>
<g>
</g>
<g>
</g>
<g>
</g>
<g>
</g>
<g>
</g>
<g>
</g>
<g>
</g>
</svg>
